# File created by Blade
# Date/Time:  Thu Jan 22 16:53:03 2015
#---------------------------------------------------------
:version 1.10
:name HOM
:units
  mass 1.0
  length 1.000000
  angle deg
:documentation
     Acclaim Skeleton File
:root
   axis xyz
   order TX TY TZ RX RY RZ
   position 0.000000 0.000000 0.000000
   orientation 0 0 0
:bonedata
   begin
      id 1
      name RightUpLeg_dum
      direction -1.000000 0.000000 0.000000
      length 3.766986
      axis 0.0 0.0 0.0 xyz
   end
   begin
      id 2
      name LeftUpLeg_dum
      direction 1.000000 0.000000 0.000000
      length 3.766986
      axis 0.0 0.0 0.0 xyz
   end
   begin
      id 3
      name Spine_dum
      direction 0.000000 1.000000 0.000000
      length 7.779697
      axis 0.0 0.0 0.0 xyz
   end
   begin
      id 4
      name RightUpLeg
      direction 0.000000 -1.000000 0.000000
      length 18.017682
      axis 0.0 0.0 0.0 xyz
      dof rx ry rz
   end
   begin
      id 5
      name RightLeg
      direction 0.000000 -1.000000 0.000000
      length 16.881075
      axis 0.0 0.0 0.0 xyz
      dof rx ry rz
   end
   begin
      id 6
      name RightFoot
      direction 0.000000 -0.258819 0.965926
      length 5.770812
      axis 15.0 0.0 0.0 xyz
      dof rx ry rz
   end
   begin
      id 7
      name RightToeBase
      direction 0.000000 0.000000 1.000000
      length 2.952750
      axis 0.0 0.0 0.0 xyz
      dof rx ry rz
   end
   begin
      id 8
      name LeftUpLeg
      direction 0.000000 -1.000000 0.000000
      length 18.017682
      axis 0.0 0.0 0.0 xyz
      dof rx ry rz
   end
   begin
      id 9
      name LeftLeg
      direction 0.000000 -1.000000 0.000000
      length 16.881075
      axis 0.0 0.0 0.0 xyz
      dof rx ry rz
   end
   begin
      id 10
      name LeftFoot
      direction 0.000000 -0.258819 0.965926
      length 5.770812
      axis 15.0 0.0 0.0 xyz
      dof rx ry rz
   end
   begin
      id 11
      name LeftToeBase
      direction 0.000000 0.000000 1.000000
      length 2.952750
      axis 0.0 0.0 0.0 xyz
      dof rx ry rz
   end
   begin
      id 12
      name Spine
      direction 0.000000 1.000000 0.000000
      length 0.000000
      axis 0.0 0.0 0.0 xyz
      dof rx ry rz
   end
   begin
      id 13
      name Spine_dum1
      direction 0.000000 1.000000 0.000000
      length 10.941760
      axis 0.0 0.0 0.0 xyz
   end
   begin
      id 14
      name Spine_dum2
      direction 0.000000 1.000000 0.000000
      length 10.941760
      axis 0.0 0.0 0.0 xyz
   end
   begin
      id 15
      name Spine_dum3
      direction 0.000000 1.000000 0.000000
      length 16.646042
      axis 0.0 0.0 0.0 xyz
   end
   begin
      id 16
      name RightShoulder
      direction -1.000000 0.000000 0.000000
      length 7.708937
      axis 0.0 0.0 90.0 xyz
      dof rx ry rz
   end
   begin
      id 17
      name RightArm
      direction -1.000000 0.000000 0.000000
      length 11.521345
      axis 0.0 0.0 90.0 xyz
      dof rx ry rz
   end
   begin
      id 18
      name RightForeArm
      direction -1.000000 0.000000 0.000000
      length 10.175898
      axis 0.0 0.0 90.0 xyz
      dof ry rz rx
   end
   begin
      id 19
      name RightHand
      direction -1.000000 0.000000 0.000000
      length 0.000000
      axis 0.0 0.0 90.0 xyz
      dof rx ry rz
   end
   begin
      id 20
      name RightHand_dum1
      direction -1.000000 0.000000 0.000000
      length 3.937000
      axis 0.0 0.0 90.0 xyz
   end
   begin
      id 21
      name RightHand_dum2
      direction 0.000000 0.000000 0.000000
      length 0.000000
      axis 0.0 0.0 90.0 xyz
   end
   begin
      id 22
      name RightHandThumb1
      direction 0.000000 0.000000 1.000000
      length 3.937000
      axis 0.0 0.0 90.0 xyz
      dof rx rz ry
   end
   begin
      id 23
      name LeftShoulder
      direction 1.000000 0.000000 0.000000
      length 7.708937
      axis 0.0 0.0 -90.0 xyz
      dof rx ry rz
   end
   begin
      id 24
      name LeftArm
      direction 1.000000 0.000000 0.000000
      length 11.521345
      axis 0.0 0.0 -90.0 xyz
      dof rx ry rz
   end
   begin
      id 25
      name LeftForeArm
      direction 1.000000 0.000000 0.000000
      length 10.175898
      axis 0.0 0.0 -90.0 xyz
      dof ry rz rx
   end
   begin
      id 26
      name LeftHand
      direction 1.000000 0.000000 0.000000
      length 0.000000
      axis 0.0 0.0 -90.0 xyz
      dof rx ry rz
   end
   begin
      id 27
      name LeftHand_dum1
      direction 1.000000 0.000000 0.000000
      length 3.937000
      axis 0.0 0.0 -90.0 xyz
   end
   begin
      id 28
      name LeftHand_dum2
      direction 0.000000 0.000000 0.000000
      length 0.000000
      axis 0.0 0.0 -90.0 xyz
   end
   begin
      id 29
      name LeftHandThumb1
      direction 0.000000 0.000000 1.000000
      length 3.937000
      axis 0.0 0.0 -90.0 xyz
      dof rx rz ry
   end
   begin
      id 30
      name Head
      direction 0.000000 1.000000 0.000000
      length 4.527550
      axis 0.0 0.0 0.0 xyz
      dof rx ry rz
   end
:hierarchy
   begin
      root RightUpLeg_dum LeftUpLeg_dum Spine_dum
      RightUpLeg_dum RightUpLeg
      LeftUpLeg_dum LeftUpLeg
      Spine_dum Spine
      RightUpLeg RightLeg
      RightLeg RightFoot
      RightFoot RightToeBase
      LeftUpLeg LeftLeg
      LeftLeg LeftFoot
      LeftFoot LeftToeBase
      Spine Spine_dum1 Spine_dum2 Spine_dum3
      Spine_dum1 RightShoulder
      Spine_dum2 LeftShoulder
      Spine_dum3 Head
      RightShoulder RightArm
      RightArm RightForeArm
      RightForeArm RightHand
      RightHand RightHand_dum1 RightHand_dum2
      RightHand_dum2 RightHandThumb1
      LeftShoulder LeftArm
      LeftArm LeftForeArm
      LeftForeArm LeftHand
      LeftHand LeftHand_dum1 LeftHand_dum2
      LeftHand_dum2 LeftHandThumb1
   end

# File created by Blade
# Date/Time:  Thu Jan 22 16:52:56 2015
# Frame Rate: 120.000 fps
#------------------------------------------------------
:FULLY-SPECIFIED
:DEGREES
86
root 3.898564 37.170362 2.880643 -1.087321 -2.263810 2.304731
RightUpLeg 9.114628 -9.912883 -6.310157
RightLeg -5.262734 -0.000000 0.000000
RightFoot -11.172411 -16.216544 17.986682
RightToeBase 14.918221 -0.000000 -0.000000
LeftUpLeg 8.024059 2.457601 0.664594
LeftLeg -3.302524 -0.000000 0.000000
LeftFoot -9.482891 16.397971 -18.116057
LeftToeBase 10.148079 -0.000000 -0.000000
Spine 5.296194 -2.940793 -3.485190
RightShoulder -4.474175 -5.308464 -28.976066
RightArm 6.559996 35.836380 28.984784
RightForeArm -6.267797 -0.000000 16.988178
RightHand 0.406642 -0.000000 9.544029
RightHandThumb1 -24.326973 -0.000000 -32.862282
LeftShoulder -22.447557 30.413915 18.662341
LeftArm 34.725068 -48.819623 -42.265357
LeftForeArm 42.856561 -0.000000 5.435304
LeftHand -16.119116 -0.000000 -8.004384
LeftHandThumb1 -26.253704 0.000000 33.147579
Head -14.147878 12.932339 1.664059
87
root 3.898055 37.170159 2.879269 -1.088136 -2.255016 2.304437
RightUpLeg 9.115842 -9.914766 -6.307125
RightLeg -5.264326 -0.000000 0.000000
RightFoot -11.166985 -16.236513 17.964722
RightToeBase 14.827229 -0.000000 -0.000000
LeftUpLeg 8.021048 2.464939 0.666197
LeftLeg -3.303010 -0.000000 0.000000
LeftFoot -9.482794 16.393313 -18.126062
LeftToeBase 10.157668 -0.000000 -0.000000
Spine 5.296430 -2.947555 -3.479434
RightShoulder -4.469522 -5.290650 -28.986018
RightArm 6.552132 35.840244 29.003485
RightForeArm -6.283382 -0.000000 17.005900
RightHand 0.395315 -0.000000 9.544395
RightHandThumb1 -24.326973 -0.000000 -32.862282
LeftShoulder -22.465582 30.458153 18.642824
LeftArm 34.796344 -48.835682 -42.328801
LeftForeArm 42.854719 0.000000 5.434815
LeftHand -15.989487 -0.000000 -7.954572
LeftHandThumb1 -26.253704 0.000000 33.147579
Head -14.134506 12.956887 1.659154
88
root 3.895099 37.170226 2.877173 -1.081658 -2.251457 2.290065
RightUpLeg 9.144825 -9.814173 -6.278744
RightLeg -5.341020 -0.000000 0.000000
RightFoot -11.134754 -16.310499 18.041425
RightToeBase 14.827080 -0.000000 -0.000000
LeftUpLeg 8.012774 2.476143 0.686166
LeftLeg -3.307946 -0.000000 0.000000
LeftFoot -9.495985 16.372930 -18.168204
LeftToeBase 10.173253 -0.000000 -0.000000
Spine 5.293704 -2.947677 -3.470628
RightShoulder -4.485884 -5.339588 -28.957000
RightArm 6.608723 35.828345 29.015175
RightForeArm -6.237038 -0.000000 16.992912
RightHand 0.413521 -0.000000 9.519445
RightHandThumb1 -24.326973 -0.000000 -32.862282
LeftShoulder -22.451730 30.430222 18.662839
LeftArm 34.732493 -48.782362 -42.280013
LeftForeArm 42.848407 -0.000000 5.461766
LeftHand -16.165567 -0.000000 -7.930901
LeftHandThumb1 -26.253704 0.000000 33.147579
Head -14.132829 12.947299 1.676261
89
root 3.896741 37.170348 2.876926 -1.088845 -2.245703 2.296004
RightUpLeg 9.114425 -9.912310 -6.294507
RightLeg -5.265690 -0.000000 0.000000
RightFoot -11.156050 -16.238299 17.998911
RightToeBase 14.824454 -0.000000 -0.000000
LeftUpLeg 8.017827 2.485635 0.677954
LeftLeg -3.306913 -0.000000 0.000000
LeftFoot -9.496299 16.371265 -18.162608
LeftToeBase 10.202934 -0.000000 -0.000000
Spine 5.300830 -2.947503 -3.471213
RightShoulder -4.500591 -5.399118 -28.942871
RightArm 6.681249 35.883154 29.054743
RightForeArm -6.259467 0.000000 16.984956
RightHand 0.432508 -0.000000 9.490459
RightHandThumb1 -24.326973 -0.000000 -32.862282
LeftShoulder -22.436310 30.413373 18.667442
LeftArm 34.703701 -48.763533 -42.256036
LeftForeArm 42.828717 -0.000000 5.463134
LeftHand -16.152072 0.000000 -7.972813
LeftHandThumb1 -26.253704 0.000000 33.147579
Head -14.123440 12.945070 1.673879
90
root 3.896478 37.170118 2.876178 -1.090715 -2.237197 2.295287
RightUpLeg 9.114015 -9.922392 -6.293205
RightLeg -5.259355 -0.000000 0.000000
RightFoot -11.166957 -16.240791 18.006039
RightToeBase 14.871772 -0.000000 -0.000000
LeftUpLeg 8.018082 2.491291 0.678987
LeftLeg -3.310409 -0.000000 0.000000
LeftFoot -9.506282 16.366158 -18.181481
LeftToeBase 10.247557 -0.000000 -0.000000
Spine 5.301574 -2.953976 -3.469436
RightShoulder -4.480750 -5.348435 -28.962721
RightArm 6.618147 35.847409 29.060978
RightForeArm -6.249168 -0.000000 17.010249
RightHand 0.489853 -0.000000 9.490787
RightHandThumb1 -24.326973 -0.000000 -32.862282
LeftShoulder -22.448282 30.430112 18.655674
LeftArm 34.748986 -48.782517 -42.298705
LeftForeArm 42.798530 -0.000000 5.461189
LeftHand -16.065777 -0.000000 -8.064433
LeftHandThumb1 -26.253704 0.000000 33.147579
Head -14.112418 12.960268 1.684881
91
root 3.896427 37.170371 2.875276 -1.090834 -2.226247 2.299627
RightUpLeg 9.116195 -9.933889 -6.298437
RightLeg -5.260856 -0.000000 0.000000
RightFoot -11.169696 -16.244755 17.987266
RightToeBase 14.873455 -0.000000 -0.000000
LeftUpLeg 8.015983 2.480569 0.677548
LeftLeg -3.305915 -0.000000 0.000000
LeftFoot -9.468157 16.356187 -18.120545
LeftToeBase 10.193773 -0.000000 -0.000000
Spine 5.301870 -2.964953 -3.475885
RightShoulder -4.488266 -5.378280 -28.955709
RightArm 6.668282 35.863591 29.102236
RightForeArm -6.277818 -0.000000 17.021028
RightHand 0.490551 -0.000000 9.384591
RightHandThumb1 -24.326973 -0.000000 -32.862282
LeftShoulder -22.454967 30.426066 18.649701
LeftArm 34.760334 -48.780100 -42.296739
LeftForeArm 42.801023 0.000000 5.445533
LeftHand -16.046340 -0.000000 -8.126448
LeftHandThumb1 -26.253704 0.000000 33.147579
Head -14.106149 12.974483 1.695449
92
root 3.893329 37.169907 2.873283 -1.084587 -2.225439 2.294029
RightUpLeg 9.151237 -9.806587 -6.276904
RightLeg -5.348653 -0.000000 0.000000
RightFoot -11.154938 -16.338615 18.077361
RightToeBase 14.837584 -0.000000 -0.000000
LeftUpLeg 8.008660 2.480917 0.689502
LeftLeg -3.306193 -0.000000 0.000000
LeftFoot -9.470075 16.341242 -18.122301
LeftToeBase 10.177168 -0.000000 -0.000000
Spine 5.298215 -2.966650 -3.476371
RightShoulder -4.489087 -5.340932 -28.968749
RightArm 6.660526 35.825228 29.136601
RightForeArm -6.276557 -0.000000 17.042716
RightHand 0.471145 -0.000000 9.370653
RightHandThumb1 -24.326973 -0.000000 -32.862282
LeftShoulder -22.482156 30.447079 18.659610
LeftArm 34.854131 -48.806870 -42.407491
LeftForeArm 42.819933 -0.000000 5.438582
LeftHand -15.919168 -0.000000 -8.011018
LeftHandThumb1 -26.253704 0.000000 33.147579
Head -14.109266 12.953913 1.693983
93
root 3.893054 37.169509 2.872246 -1.082542 -2.223764 2.292562
RightUpLeg 9.150388 -9.797042 -6.273515
RightLeg -5.354491 -0.000000 0.000000
RightFoot -11.161961 -16.347325 18.050704
RightToeBase 14.863723 -0.000000 -0.000000
LeftUpLeg 8.002170 2.479511 0.689738
LeftLeg -3.303880 -0.000000 0.000000
LeftFoot -9.496258 16.346386 -18.165161
LeftToeBase 10.215487 -0.000000 -0.000000
Spine 5.296347 -2.973378 -3.475012
RightShoulder -4.484545 -5.347339 -28.964835
RightArm 6.674060 35.828618 29.152807
RightForeArm -6.279378 0.000000 17.049521
RightHand 0.490553 0.000000 9.352910
RightHandThumb1 -24.326973 -0.000000 -32.862282
LeftShoulder -22.499101 30.448415 18.662677
LeftArm 34.876455 -48.798792 -42.438169
LeftForeArm 42.816429 -0.000000 5.434878
LeftHand -15.883242 -0.000000 -7.993336
LeftHandThumb1 -26.253704 0.000000 33.147579
Head -14.102459 12.961970 1.697808
94
root 3.894741 37.170041 2.872595 -1.087940 -2.212187 2.299248
RightUpLeg 9.117848 -9.923729 -6.292544
RightLeg -5.270598 -0.000000 0.000000
RightFoot -11.170419 -16.265130 17.996759
RightToeBase 14.812160 -0.000000 -0.000000
LeftUpLeg 8.008044 2.470717 0.680960
LeftLeg -3.306157 -0.000000 0.000000
LeftFoot -9.462006 16.350974 -18.107633
LeftToeBase 10.165979 -0.000000 -0.000000
Spine 5.297468 -2.977695 -3.483717
RightShoulder -4.483894 -5.367493 -28.952041
RightArm 6.687160 35.822221 29.157393
RightForeArm -6.257039 0.000000 17.056293
RightHand 0.473239 -0.000000 9.359837
RightHandThumb1 -24.326973 -0.000000 -32.862282
LeftShoulder -22.476304 30.432881 18.663593
LeftArm 34.819743 -48.773193 -42.366814
LeftForeArm 42.778659 -0.000000 5.421960
LeftHand -16.044027 -0.000000 -7.939270
LeftHandThumb1 -26.253704 0.000000 33.147579
Head -14.088166 12.974479 1.720782
95
root 3.895420 37.169406 2.871710 -1.081922 -2.207688 2.302867
RightUpLeg 9.104910 -9.939428 -6.297767
RightLeg -5.256824 -0.000000 0.000000
RightFoot -11.187462 -16.238889 18.033061
RightToeBase 14.850963 -0.000000 -0.000000
LeftUpLeg 7.994755 2.432013 0.675399
LeftLeg -3.301092 -0.000000 0.000000
LeftFoot -9.492744 16.368619 -18.184227
LeftToeBase 10.168684 -0.000000 -0.000000
Spine 5.288801 -2.975579 -3.481303
RightShoulder -4.492195 -5.373189 -28.970484
RightArm 6.706222 35.840667 29.207340
RightForeArm -6.281916 0.000000 17.072442
RightHand 0.464584 0.000000 9.331617
RightHandThumb1 -24.326973 -0.000000 -32.862282
LeftShoulder -22.509684 30.473468 18.650963
LeftArm 34.939037 -48.796853 -42.478720
LeftForeArm 42.873793 -0.000000 5.408608
LeftHand -15.940736 -0.000000 -7.975822
LeftHandThumb1 -26.253704 0.000000 33.147579
Head -14.083982 12.970546 1.712032
96
root 3.892115 37.169219 2.870418 -1.071353 -2.209928 2.289849
RightUpLeg 9.140056 -9.826589 -6.269364
RightLeg -5.356028 -0.000000 0.000000
RightFoot -11.170528 -16.332422 18.080436
RightToeBase 14.891272 -0.000000 -0.000000
LeftUpLeg 7.990850 2.478418 0.695378
LeftLeg -3.314382 -0.000000 0.000000
LeftFoot -9.481098 16.335640 -18.154820
LeftToeBase 10.187639 -0.000000 -0.000000
Spine 5.273670 -2.969555 -3.474814
RightShoulder -4.487112 -5.356105 -28.965564
RightArm 6.692214 35.807949 29.206758
RightForeArm -6.271478 -0.000000 17.075571
RightHand 0.478592 -0.000000 9.321840
RightHandThumb1 -24.326973 -0.000000 -32.862282
LeftShoulder -22.501351 30.470984 18.667993
LeftArm 34.921462 -48.787582 -42.471544
LeftForeArm 42.881554 -0.000000 5.410735
LeftHand -15.908685 -0.000000 -7.954834
LeftHandThumb1 -26.253704 0.000000 33.147579
Head -14.076336 12.957461 1.726769
